<svg id="Capa_1" data-name="Capa 1" xmlns="http://www.w3.org/2000/svg" viewBox="0 0 216 70"><defs><style>.cls-1{fill:#e800e3;}</style></defs><title>bangas</title><path class="cls-1" d="M84.24,47.64q-9.37,2.29-20.91,4.27T37.72,55.53q1.51,4.38,2.77,7.88T43,69.57q-2.54-4.18-7.17-13.78-1.61.24-3,.36T30,56.42a24.45,24.45,0,0,0,2.67-.59q1.31-.36,2.81-.74l-.66-1.4Q32.33,48.42,30.11,43t-4.42-11.1l-10.2,4.93q1.6-1,4-2.47t5.68-3.8Q22.7,24.4,20.91,19t-3.1-10.2q-3.39.35-6.29.73t-5.33.89L-.26,2.68q1.49-.16,3-.25l3.13-.19q11.37-.68,23.82-.48T56,3.08L61.49,9a71.61,71.61,0,0,1-11.26,8.93Q42.95,22.76,32.12,28.6q12.42,2,25,5T83,41ZM53.12,8.38Q46,7.94,38.84,7.93t-14.67.44l-3.65.22L25.42,11q.56,3.29,1.5,7.52T29.22,28Q38.46,21.8,44.4,17A47.64,47.64,0,0,0,53.12,8.38ZM74.69,44.67q-4.48-1.9-10.25-4T52.58,36.61q-6.08-1.95-12-3.65T29.77,30.18Q31.4,35.92,33.28,42t4.18,12.66q9.33-2,18.54-4.46T74.69,44.67Z"/><path class="cls-1" d="M110.4,41.1q-1.39,8.16-5.88,12.32l-3.72-2.74a8,8,0,0,1-1,1.14q-.77.77-1.65,1.54l-1.59,1.39a6.35,6.35,0,0,0-.74.69l-6.57-4.37a68.15,68.15,0,0,1-3.5-9,72.13,72.13,0,0,1-2.24-9.28,54.17,54.17,0,0,1-.81-8.46,19.82,19.82,0,0,1,.87-6.58c.27,0,.84,0,1.72,0a26.38,26.38,0,0,1,2.8.3,23.23,23.23,0,0,1,2.82.63,3.3,3.3,0,0,1,1.83,1.08,31.6,31.6,0,0,1,2,3.27q.94,1.75,2,3.85-1.66-.55-3.46-1.06l-3.78-1a6.83,6.83,0,0,0-1.27,2.67,18.82,18.82,0,0,0-.6,4q-.12,2.28,0,4.83a39.24,39.24,0,0,0,.56,5A40,40,0,0,0,89.32,46a16.77,16.77,0,0,0,1.59,3.73q7-5.47,2.5-20.42l6.18,1.8q1.61,5.24,2.5,9a31.5,31.5,0,0,1,.93,6.26A17.07,17.07,0,0,0,110.4,41.1Z"/><path class="cls-1" d="M136.55,37.53a21.26,21.26,0,0,1-.76,6.79,29.13,29.13,0,0,1-2.86,6.7l-8-5.72a94.55,94.55,0,0,0-2.47-11.57,121,121,0,0,0-4.66-13.46,29.4,29.4,0,0,0-.89,3.7q-.41,2.22-.71,4.95t-.47,5.76q-.17,3-.23,6.11t0,6q.06,2.88.3,5.25L111,46.91q-2.51-8.65-5.21-16A144.82,144.82,0,0,0,99.86,17l6.87,2a118.15,118.15,0,0,1,3.61,11.51q1.49,5.79,2.39,11.58A62.13,62.13,0,0,1,113,29.55a88.67,88.67,0,0,1,2.74-13.29l7.55,1.93a131.22,131.22,0,0,1,7,27.07Q133.81,43.32,136.55,37.53Z"/><path class="cls-1" d="M165,33.53a26.91,26.91,0,0,1-2.48,5.74,16.36,16.36,0,0,1-3.45,4.14q1.3,2.66,3.14,6.56t4.41,9.29l-4.24,3.21A38.72,38.72,0,0,0,157.54,60a35.66,35.66,0,0,0-5.33-1.67q-2.95-.69-6.86-1.25T136,56q2.11-.49,4.42-.8t4.59-.45a47,47,0,0,1,15.33,1.32,18.33,18.33,0,0,1-1-2.14L158,50.89l-1.29-3.06a17.63,17.63,0,0,0-1.06-2.21A28.86,28.86,0,0,1,152.15,48q-2.18,1.28-5.22,2.83l-9.34-5.65a95.7,95.7,0,0,1-1.66-17.57,58.71,58.71,0,0,1,1.84-14.68l9,.62q.6,2.27,10.5,25.48A23.44,23.44,0,0,0,165,33.53Zm-12.22,7.22q-1.05-2-3.48-6.86t-6.3-13a62,62,0,0,0-2.3,11.46,86.37,86.37,0,0,0-.4,12.36,16.81,16.81,0,0,0,2.83-.42,25.24,25.24,0,0,0,3.56-1.19Z"/><path class="cls-1" d="M190.78,36.32q-1.39,8.16-5.88,12.32l-3.72-2.74a8,8,0,0,1-1,1.14q-.77.77-1.66,1.54L176.92,50a6.22,6.22,0,0,0-.73.69l-6.58-4.37a68,68,0,0,1-3.5-9A72.3,72.3,0,0,1,163.88,28a54.41,54.41,0,0,1-.81-8.46,19.82,19.82,0,0,1,.87-6.58c.27,0,.85,0,1.72,0a26.24,26.24,0,0,1,2.8.3,23.21,23.21,0,0,1,2.81.63A3.3,3.3,0,0,1,173.09,15a31.43,31.43,0,0,1,2,3.27q.95,1.75,2,3.85-1.66-.55-3.46-1.06l-3.78-1a6.81,6.81,0,0,0-1.27,2.67,18.82,18.82,0,0,0-.6,4q-.11,2.28,0,4.83a39.07,39.07,0,0,0,.56,5,39.57,39.57,0,0,0,1.11,4.66A16.78,16.78,0,0,0,171.29,45q7-5.47,2.5-20.42l6.18,1.8q1.61,5.24,2.5,9a31.58,31.58,0,0,1,.94,6.26A17.07,17.07,0,0,0,190.78,36.32Z"/><path class="cls-1" d="M214.06,32q-1.32,8.73-1.55,9.25-1.49,5.28-5.58,7a24.37,24.37,0,0,1-3.83-.57,13,13,0,0,1-3.6-1.55A38.28,38.28,0,0,1,195.05,43q-2.54-2.08-6.5-5.74,8,4.43,12.14,5a34.6,34.6,0,0,0-6.47-19.81q-.79-1.11-1.66-2.21t-1.85-2.13a37.4,37.4,0,0,1-.69,4,18.37,18.37,0,0,1-1.16,3.31,25.17,25.17,0,0,1-2.15,3.7q-1.39,2-3.81,5.06,1.3-3.18,2-5.49A29.65,29.65,0,0,0,186,24.05a30.89,30.89,0,0,0,.27-5q-.06-2.7-.38-6.72l-3.66-8a9.74,9.74,0,0,1,5.23-2,26.9,26.9,0,0,1,5.12.42q-.15,1.81-.2,3.65t-.11,3.54q-.06,1.7-.21,3a10.54,10.54,0,0,1-.42,2.15q2.21,2,4.21,4.26A51.69,51.69,0,0,1,199.6,24q7.53,10.59,6.94,17.62a8.91,8.91,0,0,0,4.19-3.75Q212.42,35.1,214.06,32Z"/></svg>